<svg xmlns="http://www.w3.org/2000/svg" viewBox="0 0 64 64" role="img" aria-label="Care2 Training logo mark">
  <defs>
    <linearGradient id="c2t" x1="10" y1="8" x2="54" y2="56" gradientUnits="userSpaceOnUse">
      <stop offset="0" stop-color="#315BFF"/>
      <stop offset="0.55" stop-color="#2747CA"/>
      <stop offset="1" stop-color="#132A7C"/>
    </linearGradient>
  </defs>
  <rect x="6" y="6" width="52" height="52" rx="14" fill="url(#c2t)"/>
  <path
    d="M30.3 23.2c-1.9-1.8-4.3-2.7-7.1-2.7-2.9 0-5.4 1-7.5 3.1-2.1 2.1-3.2 4.7-3.2 7.8 0 3 1.1 5.6 3.2 7.7 2.1 2.1 4.6 3.2 7.5 3.2 2.8 0 5.2-.9 7.1-2.7v5.7c-2.2 1.2-4.7 1.8-7.5 1.8-4.7 0-8.7-1.6-12-4.9-3.3-3.3-5-7.3-5-11.9 0-4.7 1.7-8.7 5-12 3.3-3.3 7.3-5 12-5 2.8 0 5.3.6 7.5 1.8v6.1Z"
    fill="#FFFFFF"
    opacity="0.98"
  />
  <path
    d="M44.5 22.2c3.2 0 5.7.8 7.5 2.4 1.8 1.6 2.7 3.7 2.7 6.4 0 2.1-.6 3.9-1.7 5.4-1.1 1.5-3 3.1-5.6 4.9l-4.4 2.9h12v5.7H33.2v-5.1l10.5-7.2c2-1.3 3.3-2.4 4-3.1.7-.8 1.1-1.7 1.1-2.8 0-1.2-.4-2.2-1.3-2.9-.9-.7-2.1-1.1-3.6-1.1-2.9 0-5.6 1.1-8.1 3.4V24c2.6-1.2 5.5-1.8 8.7-1.8Z"
    fill="#FFFFFF"
    opacity="0.98"
  />
</svg>

